<svg xmlns="http://www.w3.org/2000/svg" height="20.773" width="114.667"><defs><clipPath id="a"><path d="M0 15.58h86V0H0z"/></clipPath></defs><path d="M12.28.174V14.52L2.84.174H0V20.6h3.1V6.227L12.537 20.6h2.841V.174z" fill="#f7f8fa"/><g clip-path="url(#a)" transform="matrix(1.33333 0 0 -1.33333 0 20.773)"><path d="M23.636 5.864a9.386 9.386 0 0 0-.13-1.291 3.157 3.157 0 0 0-.28-.882 2.974 2.974 0 0 0-.461-.656 3.043 3.043 0 0 0-1.001-.689 3.169 3.169 0 0 0-1.28-.258c-.46 0-.886.086-1.28.258a3.135 3.135 0 0 0-.73.458l5.133 7.332c.01-.138.023-.269.029-.42.02-.51.032-1.152.032-1.926 0-.775-.011-1.417-.032-1.926m-6.304 3.852c.02.508.065.939.129 1.291.065.351.158.645.28.881.122.237.276.456.462.657a3.149 3.149 0 0 0 2.281.946c.459 0 .885-.085 1.28-.258.329-.143.605-.336.85-.56l-5.236-7.477c-.02.206-.036.427-.046.668A46.326 46.326 0 0 0 17.3 7.79c0 .774.01 1.416.032 1.926m8.488 1.689a5.162 5.162 0 0 1-.43 1.355c-.201.416-.488.81-.861 1.183a5.543 5.543 0 0 1-1.807 1.216c-.675.28-1.42.419-2.238.419-.818 0-1.56-.139-2.227-.419a5.562 5.562 0 0 1-1.796-1.216 4.367 4.367 0 0 1-.861-1.183 5.45 5.45 0 0 1-.441-1.355 9.85 9.85 0 0 1-.162-1.625 85.314 85.314 0 0 1-.021-1.99c0-.732.007-1.395.02-1.99a9.815 9.815 0 0 1 .163-1.624c.093-.489.24-.94.44-1.356.202-.416.489-.81.862-1.184A5.559 5.559 0 0 1 18.257.421c.667-.281 1.409-.419 2.227-.419.818 0 1.563.138 2.238.419a5.54 5.54 0 0 1 1.807 1.215c.373.374.66.768.86 1.184.202.416.345.867.43 1.356.087.486.137 1.029.15 1.624.016.595.023 1.258.023 1.99 0 .731-.007 1.395-.022 1.99a10.88 10.88 0 0 1-.15 1.625M31.758 8.543v4.82H35.2c.775 0 1.402-.213 1.883-.638.481-.425.721-1.02.721-1.783 0-.764-.24-1.355-.72-1.772-.482-.418-1.109-.627-1.884-.627zm7.487-.247c.59.68.883 1.574.883 2.679a4.77 4.77 0 0 1-.334 1.796 3.99 3.99 0 0 1-.957 1.42 4.456 4.456 0 0 1-1.496.925c-.58.222-1.237.334-1.968.334h-5.939V.13h2.324v6.455h2.905L37.89.13h2.711l-3.529 6.777a4.391 4.391 0 0 1 2.173 1.388M50.326 5.918l-4.475 9.532h-2.324V.13h2.324v10.242l3.615-7.466h1.72l3.53 7.466V.13h2.324V15.45h-2.324zM63.407 5.165l2.39 6.799 2.323-6.8zm1.398 10.285L59.19.13h2.475l1.055 3.077h6.044L69.82.13h2.475L66.678 15.45zM83.676 15.45V4.69l-7.08 10.758h-2.13V.13h2.324v10.78L83.869.13h2.13v15.32z" fill="#f7f8fa"/></g></svg>